<?xml version="1.0" encoding="UTF-8"?>
<svg width="315px" height="48px" viewBox="0 0 315 48" version="1.1" xmlns="http://www.w3.org/2000/svg" xmlns:xlink="http://www.w3.org/1999/xlink">
    <title>gmail</title>
    <defs>
        <linearGradient x1="104.414637%" y1="50.8204837%" x2="0%" y2="48.8390023%" id="linearGradient-1">
            <stop stop-color="#865CF4" offset="0%"></stop>
            <stop stop-color="#C01C8A" offset="100%"></stop>
        </linearGradient>
    </defs>
    <g id="Page-1" stroke="none" stroke-width="1" fill="none" fill-rule="evenodd">
        <g id="gmail">
            <path d="M302.68898,0.5 C305.312333,0.5 307.687333,1.56332372 309.406495,3.28248558 C311.125656,5.00164744 312.18898,7.37664744 312.18898,10 C312.18898,10.654269 312.121391,11.3067878 311.987289,11.9471662 L311.987289,11.9471662 L306.174128,39.7067713 C305.713638,41.9057483 304.514322,43.7930464 302.868459,45.131055 C301.222596,46.4690636 299.130186,47.2577828 296.883512,47.259602 L296.883512,47.259602 L12.3078104,47.4900337 C9.68445869,47.492158 7.30859845,46.4307577 5.58804509,44.7129885 C3.86749172,42.9952193 2.80224522,40.6210811 2.800121,37.9977294 C2.79959178,37.3441676 2.86650715,36.6922958 2.9998039,36.0524714 L2.9998039,36.0524714 L8.83106157,8.06243459 C9.28995042,5.8597681 10.4900491,3.96915945 12.1379154,2.62921743 C13.7857818,1.2892754 15.8814159,0.5 18.1313756,0.5 L18.1313756,0.5 Z" id="Rectangle" stroke="url(#linearGradient-1)" fill-opacity="0.175562719" fill="#AA33B2"></path>
            <text id="Continue-with-Gmail" opacity="0.870000005" font-family="Avenir-Black, Avenir" font-size="14" font-weight="700" line-spacing="16" fill="#FFFFFF">
                <tspan x="102.848624" y="31">Continue with Gmail</tspan>
            </text>
            <g id="Group" transform="translate(70.000000, 12.000000)">
                <g id="Rectangle">
                    <rect x="0" y="0" width="24" height="24"></rect>
                </g>
                <g id="google" transform="translate(5.000000, 5.000000)" fill="#DF2EDC" fill-rule="nonzero">
                    <path d="M6.91764706,-8.70414851e-14 C8.59612224,-8.70414851e-14 10.1351096,0.597890074 11.3331596,1.59257206 L9.09213915,3.42726176 C8.46157941,3.03311801 7.71620294,2.80543015 6.91764706,2.80543015 C5.18661829,2.80543015 3.70534703,3.87521106 3.09865285,5.38966641 L3.02738934,5.58124412 C2.88371305,6.00011305 2.80540312,6.44976011 2.80540312,6.91764706 C2.80544816,7.3408125 2.86933281,7.74920964 2.98828429,8.13334634 L3.06619301,8.3608682 C3.6503829,9.91998695 5.15440368,11.029864 6.91764706,11.029864 C7.67553474,11.029864 8.38556636,10.8249827 8.99483272,10.4673187 C9.80371103,9.99297353 10.435811,9.25065055 10.7687768,8.36200312 L7.06972721,8.36200312 L7.06972721,5.62534412 L13.7144244,5.62534412 C13.7938693,6.04380772 13.8352941,6.47597151 13.8352941,6.91764706 C13.8352941,7.41290735 13.7832226,7.89600772 13.6840246,8.36200312 C13.3683225,9.84863014 12.5752246,11.1585345 11.4729465,12.1238566 L11.2483914,12.3122768 C10.0629066,13.2651557 8.55696728,13.8352941 6.91764706,13.8352941 C4.28323952,13.8352941 1.99282279,12.3628351 0.824415993,10.1959362 C0.298377574,9.22022371 -2.5313085e-14,8.10391544 -2.5313085e-14,6.91764706 C-2.5313085e-14,5.88524498 0.225970346,4.90578966 0.631657595,4.02584971 L0.773857721,3.73628603 C1.92478125,1.51655901 4.24408456,-8.70414851e-14 6.91764706,-8.70414851e-14 Z" id="Combined-Shape"></path>
                </g>
            </g>
        </g>
    </g>
</svg>