<?xml version="1.0" encoding="UTF-8"?>
<svg width="58px" height="28px" viewBox="0 0 58 28" version="1.1" xmlns="http://www.w3.org/2000/svg" xmlns:xlink="http://www.w3.org/1999/xlink">
    <title>button2</title>
    <defs>
        <linearGradient x1="104.414637%" y1="58.2350965%" x2="0%" y2="38.3472057%" id="linearGradient-1">
            <stop stop-color="#865CF4" offset="0%"></stop>
            <stop stop-color="#C01C8A" offset="100%"></stop>
        </linearGradient>
    </defs>
    <g id="Page-1" stroke="none" stroke-width="1" fill="none" fill-rule="evenodd" opacity="0.5">
        <g id="button2" stroke="url(#linearGradient-1)">
            <path d="M49.8354083,0.5 C51.3541914,0.5 52.7291914,1.11560847 53.7244956,2.1109127 C54.7197998,3.10621694 55.3354083,4.48121694 55.3354083,6 C55.3354083,6.55709563 55.2507687,7.11095799 55.0843867,7.64262762 L55.0843867,7.64262762 L50.1183642,23.5114374 C49.7601422,24.6561274 49.0516307,25.6187115 48.1328179,26.2959997 C47.2140051,26.9732878 46.084891,27.36528 44.8854636,27.3687862 L44.8854636,27.3687862 L8.175564,27.4760986 C6.65678743,27.4805384 5.27999373,26.868952 4.28178424,25.8765615 C3.28357474,24.8841711 2.66394944,23.5109765 2.65950967,21.9921999 C2.6578733,21.4324218 2.74170353,20.8756743 2.90810333,20.3411976 L2.90810333,20.3411976 L7.88198443,4.36507547 C8.23985137,3.2156057 8.95075242,2.24933684 9.87315907,1.57043541 C10.7955657,0.891533984 11.929478,0.5 13.1333673,0.5 L13.1333673,0.5 Z" id="Rectangle"></path>
        </g>
    </g>
</svg>