<?xml version="1.0" encoding="UTF-8"?>
<svg width="136px" height="28px" viewBox="0 0 136 28" version="1.1" xmlns="http://www.w3.org/2000/svg" xmlns:xlink="http://www.w3.org/1999/xlink">
    <title>verify copy</title>
    <defs>
        <linearGradient x1="100%" y1="50%" x2="2.65621706%" y2="48.7606579%" id="linearGradient-1">
            <stop stop-color="#261F2C" offset="0%"></stop>
            <stop stop-color="#5D5760" offset="100%"></stop>
        </linearGradient>
        <linearGradient x1="104.414637%" y1="54.5339998%" x2="0%" y2="43.5843172%" id="linearGradient-2">
            <stop stop-color="#865CF4" offset="0%"></stop>
            <stop stop-color="#C01C8A" offset="100%"></stop>
        </linearGradient>
    </defs>
    <g id="Page-1" stroke="none" stroke-width="1" fill="none" fill-rule="evenodd">
        <g id="bg1" transform="translate(-103.000000, -342.000000)">
            <g id="verify-copy" transform="translate(103.000000, 342.000000)">
                <path d="M10.7151252,0 L128.61246,0 C131.926168,-1.35481834e-14 134.61246,2.6862915 134.61246,6 C134.61246,6.41346918 134.569721,6.82583097 134.484924,7.23051149 L131.161355,23.0918368 C130.579537,25.8684946 128.13249,27.8581816 125.295531,27.8613216 L7.38809282,27.9918228 C4.07438635,27.9954904 1.38512328,25.3121738 1.38145563,21.9984673 C1.38099784,21.5848504 1.42331074,21.1722947 1.50771929,20.7673819 L4.84139249,4.77555542 C5.4213259,1.99358077 7.87334654,1.41020468e-15 10.7151252,0 Z" id="Rectangle" fill="url(#linearGradient-1)"></path>
                <path d="M75.0901213,2 L126.837096,2 C129.59852,2 131.837096,4.23857625 131.837096,7 C131.837096,7.34631534 131.801116,7.69169364 131.729736,8.03057285 L128.805121,21.9151645 C128.318588,24.2249779 126.282939,25.8798781 123.922445,25.8845817 L72.1689075,25.9877076 C69.4074892,25.9932101 67.1644568,23.759099 67.1589543,20.9976807 C67.158261,20.6497706 67.1938819,20.3027382 67.265238,19.9622236 L70.1964149,5.97450606 C70.6817165,3.65862396 72.7239372,2 75.0901213,2 Z" id="Rectangle-Copy" fill="url(#linearGradient-2)"></path>
                <text id="English" opacity="0.870000005" font-family="Montserrat-BoldItalic, Montserrat" font-size="10" font-style="italic" font-weight="bold" line-spacing="16" fill="#FFFFFF">
                    <tspan x="17.075" y="16">English</tspan>
                </text>
                <text id="عربي" opacity="0.870000005" font-family="GeezaPro-Bold, Geeza Pro" font-size="10" font-weight="bold" line-spacing="16" fill="#FFFFFF">
                    <tspan x="88" y="12">عربي</tspan>
                </text>
            </g>
        </g>
    </g>
</svg>